<svg xmlns="http://www.w3.org/2000/svg" width="37.874" height="38" viewBox="0 0 37.874 38">
  <g id="Grupo_248" data-name="Grupo 248" transform="translate(-0.848)">
    <g id="Grupo_226" data-name="Grupo 226" transform="translate(3.612 0.126)">
      <g id="Grupo_223" data-name="Grupo 223" transform="translate(3.614)">
        <path id="Trazado_74" data-name="Trazado 74" d="M115.467,10.78A18.925,18.925,0,0,0,99.292,1.695,18.565,18.565,0,0,0,87.5,5.813a1.347,1.347,0,0,0-.222.388,21.361,21.361,0,0,0-.548,4.176c0,.135,0,.269.005.4h28.729Z" transform="translate(-86.733 -1.695)" fill="#afe6ff"/>
      </g>
      <g id="Grupo_225" data-name="Grupo 225" transform="translate(0 4.118)">
        <g id="Grupo_224" data-name="Grupo 224">
          <path id="Trazado_75" data-name="Trazado 75" d="M42.048,62.108q-.023-.467-.023-.939a19,19,0,0,1,.43-4.028,19.042,19.042,0,0,0-4.384,4.967Z" transform="translate(-38.071 -57.141)" fill="#73c8f0"/>
        </g>
      </g>
    </g>
    <path id="Trazado_76" data-name="Trazado 76" d="M3.648,123.244a18.937,18.937,0,0,0,1,21.287l10.52-5.139V123.244Z" transform="translate(0 -114.092)" fill="#18a300"/>
    <path id="Trazado_77" data-name="Trazado 77" d="M135.18,123.244H108.26a18.7,18.7,0,0,0-.193,2.68,18.51,18.51,0,0,0,6,13.666l19.075-10.682,3.385-3.026A18.863,18.863,0,0,0,135.18,123.244Z" transform="translate(-99.257 -114.092)" fill="#64bc0f"/>
    <path id="Trazado_78" data-name="Trazado 78" d="M205.244,161.82l-.622-.484.222-1q-.255-.813-.581-1.593l-23.03,13.165a8.721,8.721,0,0,0,7.777,6.647c5.95.478,12.115.781,14.462-3.6a18.82,18.82,0,0,0,1.808-4.912,18.532,18.532,0,0,0,.431-4.028A18.981,18.981,0,0,0,205.244,161.82Z" transform="translate(-166.99 -146.956)" fill="#a5a0aa"/>
    <path id="Trazado_79" data-name="Trazado 79" d="M74.715,341.456a18.5,18.5,0,0,1-13.126-5.439l-9.6,5.487q.511.678,1.079,1.308l.91.264.164.834a19.041,19.041,0,0,0,2.012,1.652l1.16-.2.812,1.426a18.8,18.8,0,0,0,6.109,2.053l.339-.356.166.427a18.968,18.968,0,0,0,19.087-9.848A18.472,18.472,0,0,1,74.715,341.456Z" transform="translate(-47.345 -311.063)" fill="#828291"/>
    <path id="Trazado_80" data-name="Trazado 80" d="M98.651,180.191,66.522,198.557q.515.57,1.074,1.1l31.455-17.981q-.171-.753-.4-1.482Z" transform="translate(-60.797 -166.809)" fill="#fff"/>
    <path id="Trazado_81" data-name="Trazado 81" d="M80.727,316.93l-14.205,8.12q.515.57,1.074,1.1l13.868-7.928a.743.743,0,1,0-.737-1.289Z" transform="translate(-60.797 -293.302)" fill="#e6dcdc"/>
    <g id="Grupo_229" data-name="Grupo 229" transform="translate(16.309 25.88)">
      <g id="Grupo_228" data-name="Grupo 228">
        <path id="Trazado_82" data-name="Trazado 82" d="M0,0H3.134V1.485H0Z" transform="translate(10.87 4.662) rotate(-29.745)" fill="#fff"/>
        <path id="Trazado_83" data-name="Trazado 83" d="M0,0H3.134V1.485H0Z" transform="translate(16.312 1.554) rotate(-29.745)" fill="#fff"/>
        <g id="Grupo_227" data-name="Grupo 227" transform="translate(0 6.217)">
          <path id="Trazado_84" data-name="Trazado 84" d="M0,0H3.134V1.485H0Z" transform="translate(5.429 1.554) rotate(-29.745)" fill="#e6dcdc"/>
          <path id="Trazado_85" data-name="Trazado 85" d="M209.042,475.629l.582,1.019q.251.039.505.07l2.37-1.355-.737-1.289Z" transform="translate(-209.042 -470.965)" fill="#e6dcdc"/>
        </g>
      </g>
    </g>
    <path id="Trazado_86" data-name="Trazado 86" d="M108.067,279.955a18.94,18.94,0,0,0,1.972,1.23V265.148h-1.972Z" transform="translate(-99.257 -245.457)" fill="#1e2d64"/>
    <g id="Grupo_230" data-name="Grupo 230" transform="translate(5.684 0)">
      <path id="Trazado_87" data-name="Trazado 87" d="M73.282,20.273H66.868a.906.906,0,0,1-.906-.906V.906A.906.906,0,0,1,66.868,0h6.414a.906.906,0,0,1,.906.906V19.367a.906.906,0,0,1-.906.906Z" transform="translate(-65.962 0)" fill="#1e2d64"/>
    </g>
    <g id="Grupo_231" data-name="Grupo 231" transform="translate(5.684 0)">
      <path id="Trazado_88" data-name="Trazado 88" d="M69.353,17.033a.906.906,0,0,1-.906-.906V0H66.868a.906.906,0,0,0-.906.906V19.367a.906.906,0,0,0,.906.906h6.414a.906.906,0,0,0,.906-.906V17.033H69.353Z" transform="translate(-65.962)" fill="#0f1446"/>
    </g>
    <path id="Trazado_89" data-name="Trazado 89" d="M121.346,19.034V24a2.485,2.485,0,0,0,0-4.97Z" transform="translate(-111.549 -17.62)" fill="#ff3c3c"/>
    <g id="Grupo_232" data-name="Grupo 232" transform="translate(7.312 1.414)">
      <path id="Trazado_90" data-name="Trazado 90" d="M87.886,21.519A2.485,2.485,0,0,0,90.371,24v-4.97A2.485,2.485,0,0,0,87.886,21.519Z" transform="translate(-87.886 -19.034)" fill="#dc1428"/>
    </g>
    <path id="Trazado_91" data-name="Trazado 91" d="M121.346,101.072v4.97a2.485,2.485,0,1,0,0-4.97Z" transform="translate(-111.549 -93.566)" fill="#ffe65a"/>
    <g id="Grupo_233" data-name="Grupo 233" transform="translate(7.312 7.506)">
      <path id="Trazado_92" data-name="Trazado 92" d="M87.886,103.557a2.485,2.485,0,0,0,2.485,2.485v-4.97A2.485,2.485,0,0,0,87.886,103.557Z" transform="translate(-87.886 -101.072)" fill="#ffc305"/>
    </g>
    <g id="Grupo_234" data-name="Grupo 234" transform="translate(9.797 13.598)">
      <path id="Trazado_93" data-name="Trazado 93" d="M121.346,183.11v4.97a2.485,2.485,0,0,0,0-4.97Z" transform="translate(-121.346 -183.11)" fill="#64bc0f"/>
    </g>
    <g id="Grupo_235" data-name="Grupo 235" transform="translate(7.312 13.598)">
      <path id="Trazado_94" data-name="Trazado 94" d="M87.886,185.595a2.485,2.485,0,0,0,2.485,2.485v-4.97A2.485,2.485,0,0,0,87.886,185.595Z" transform="translate(-87.886 -183.11)" fill="#18a300"/>
    </g>
    <g id="Grupo_236" data-name="Grupo 236" transform="translate(13.91 1.414)">
      <path id="Trazado_95" data-name="Trazado 95" d="M178.819,24h-2.088v-4.97h2.717v4.341a.629.629,0,0,1-.628.628Z" transform="translate(-176.731 -19.035)" fill="#0f1446"/>
    </g>
    <g id="Grupo_237" data-name="Grupo 237" transform="translate(13.91 1.414)">
      <path id="Trazado_96" data-name="Trazado 96" d="M179.116,21.519h-2.385V19.034h4.87A2.485,2.485,0,0,1,179.116,21.519Z" transform="translate(-176.731 -19.034)" fill="#0f1446"/>
    </g>
    <g id="Grupo_238" data-name="Grupo 238" transform="translate(13.91 7.469)">
      <path id="Trazado_97" data-name="Trazado 97" d="M178.819,105.543h-2.088v-4.97h2.717v4.341a.628.628,0,0,1-.628.628Z" transform="translate(-176.731 -100.573)" fill="#0f1446"/>
    </g>
    <g id="Grupo_239" data-name="Grupo 239" transform="translate(13.91 7.469)">
      <path id="Trazado_98" data-name="Trazado 98" d="M179.116,103.058h-2.385v-2.485h4.87A2.485,2.485,0,0,1,179.116,103.058Z" transform="translate(-176.731 -100.573)" fill="#0f1446"/>
    </g>
    <g id="Grupo_240" data-name="Grupo 240" transform="translate(13.91 13.598)">
      <path id="Trazado_99" data-name="Trazado 99" d="M178.819,188.081h-2.088v-4.97h2.717v4.341a.629.629,0,0,1-.628.628Z" transform="translate(-176.731 -183.111)" fill="#0f1446"/>
    </g>
    <g id="Grupo_241" data-name="Grupo 241" transform="translate(13.91 13.598)">
      <path id="Trazado_100" data-name="Trazado 100" d="M179.116,185.595h-2.385V183.11h4.87A2.485,2.485,0,0,1,179.116,185.595Z" transform="translate(-176.731 -183.11)" fill="#0f1446"/>
    </g>
    <g id="Grupo_242" data-name="Grupo 242" transform="translate(3.001 1.56)">
      <path id="Trazado_101" data-name="Trazado 101" d="M30.469,25.97h2.088V21H29.84v4.341A.629.629,0,0,0,30.469,25.97Z" transform="translate(-29.84 -21)" fill="#0f1446"/>
    </g>
    <g id="Grupo_243" data-name="Grupo 243" transform="translate(0.848 1.559)">
      <path id="Trazado_102" data-name="Trazado 102" d="M3.333,23.484H5.718V21H.848A2.485,2.485,0,0,0,3.333,23.484Z" transform="translate(-0.848 -20.999)" fill="#0f1446"/>
    </g>
    <g id="Grupo_244" data-name="Grupo 244" transform="translate(3.001 7.615)">
      <path id="Trazado_103" data-name="Trazado 103" d="M30.469,107.508h2.088v-4.97H29.84v4.341A.629.629,0,0,0,30.469,107.508Z" transform="translate(-29.84 -102.538)" fill="#0f1446"/>
    </g>
    <g id="Grupo_245" data-name="Grupo 245" transform="translate(0.848 7.615)">
      <path id="Trazado_104" data-name="Trazado 104" d="M3.333,105.023H5.718v-2.485H.848A2.485,2.485,0,0,0,3.333,105.023Z" transform="translate(-0.848 -102.538)" fill="#0f1446"/>
    </g>
    <g id="Grupo_246" data-name="Grupo 246" transform="translate(3.001 13.744)">
      <path id="Trazado_105" data-name="Trazado 105" d="M30.469,190.046h2.088v-4.97H29.84v4.341A.629.629,0,0,0,30.469,190.046Z" transform="translate(-29.84 -185.076)" fill="#0f1446"/>
    </g>
    <g id="Grupo_247" data-name="Grupo 247" transform="translate(0.848 13.744)">
      <path id="Trazado_106" data-name="Trazado 106" d="M3.333,187.56H5.718v-2.485H.848A2.485,2.485,0,0,0,3.333,187.56Z" transform="translate(-0.848 -185.075)" fill="#0f1446"/>
    </g>
  </g>
</svg>
