<svg xmlns="http://www.w3.org/2000/svg" width="37.978" height="38" viewBox="0 0 37.978 38">
  <g id="Grupo_222" data-name="Grupo 222" transform="translate(-0.147)">
    <g id="Grupo_217" data-name="Grupo 217" transform="translate(6.48)">
      <path id="Trazado_18" data-name="Trazado 18" d="M97.742,0A18.627,18.627,0,0,0,85.914,4.131a1.352,1.352,0,0,0-.222.389,21.433,21.433,0,0,0-.55,4.19,19.294,19.294,0,0,0,19.342,19,20.34,20.34,0,0,0,11.545-4.265,3.12,3.12,0,0,0,.281-.4A18.6,18.6,0,0,0,116.742,19a19,19,0,0,0-19-19Z" transform="translate(-85.141)" fill="#afe6ff"/>
    </g>
    <path id="Trazado_19" data-name="Trazado 19" d="M68.526,29.141V9.592L59.341,2.761v26.38Z" transform="translate(-54.783 -2.555)" fill="#0360e8"/>
    <path id="Trazado_20" data-name="Trazado 20" d="M7.21,6.025.147.915V20.9H7.21Z" transform="translate(0 -0.847)" fill="#0360e8"/>
    <path id="Trazado_21" data-name="Trazado 21" d="M104.123,95.879V76.33L94.938,69.5v26.38Z" transform="translate(-87.728 -64.321)" fill="#2477f9"/>
    <path id="Trazado_22" data-name="Trazado 22" d="M10.93,89.893a3.625,3.625,0,0,1-3.625-3.625v-22.6l-.735-.547A18.957,18.957,0,0,0,.147,75.828V79a18.884,18.884,0,0,0,2.711,8.307l.383.162.019.467a19.077,19.077,0,0,0,1.489,1.95l2.867,2.678a18.907,18.907,0,0,0,8.529,3.622l.251-6.294H10.93Z" transform="translate(0 -58.414)" fill="#0360e8"/>
    <path id="Trazado_23" data-name="Trazado 23" d="M92.791,174.219h6.635v2.658H92.791Z" transform="translate(-85.741 -161.238)" fill="#ffe65a"/>
    <path id="Trazado_24" data-name="Trazado 24" d="M92.791,236.331h6.635v2.658H92.791Z" transform="translate(-85.741 -218.722)" fill="#ffe65a"/>
    <path id="Trazado_25" data-name="Trazado 25" d="M92.791,298.444h6.635V301.1H92.791Z" transform="translate(-85.741 -276.207)" fill="#ffe65a"/>
    <path id="Trazado_26" data-name="Trazado 26" d="M92.791,360.556h6.635v2.658H92.791Z" transform="translate(-85.741 -333.691)" fill="#ffe65a"/>
    <path id="Trazado_27" data-name="Trazado 27" d="M64.988,425.327h6.07v-2.658H62.139A19.108,19.108,0,0,0,64.988,425.327Z" transform="translate(-57.373 -391.176)" fill="#ffe65a"/>
    <path id="Trazado_28" data-name="Trazado 28" d="M36.519,174.219h4.448v2.658H36.519Z" transform="translate(-33.662 -161.238)" fill="#ffd23c"/>
    <path id="Trazado_29" data-name="Trazado 29" d="M36.519,236.331h4.448v2.658H36.519Z" transform="translate(-33.662 -218.722)" fill="#ffd23c"/>
    <path id="Trazado_30" data-name="Trazado 30" d="M36.519,298.444h4.448V301.1H36.519Z" transform="translate(-33.662 -276.207)" fill="#ffd23c"/>
    <path id="Trazado_31" data-name="Trazado 31" d="M36.519,362.585q.195.319.4.629h4.046v-2.658H36.519Z" transform="translate(-33.662 -333.691)" fill="#ffd23c"/>
    <path id="Trazado_32" data-name="Trazado 32" d="M64.678,425.087v-2.418H62.139A19.114,19.114,0,0,0,64.678,425.087Z" transform="translate(-57.373 -391.176)" fill="#ffd23c"/>
    <path id="Trazado_33" data-name="Trazado 33" d="M245.267,71.6V42.809h-8.038L232.4,71.6Z" transform="translate(-214.949 -39.619)" fill="#ffa50a"/>
    <path id="Trazado_34" data-name="Trazado 34" d="M220.978,71.177V42.809h-6.136V77.393a19.144,19.144,0,0,0,2.937.226,18.926,18.926,0,0,0,8.442-1.977l2.8-4.465h-8.038Z" transform="translate(-198.698 -39.619)" fill="#fa870a"/>
    <path id="Trazado_35" data-name="Trazado 35" d="M261.325,80.128l-3.221.294.488-3.01h2.733Z" transform="translate(-238.737 -71.644)" fill="#ffe65a"/>
    <path id="Trazado_36" data-name="Trazado 36" d="M246.787,80.128V77.412h-1.439v3.781h4.172V80.128Z" transform="translate(-226.931 -71.644)" fill="#ffd23c"/>
    <g id="Grupo_218" data-name="Grupo 218" transform="translate(18.417 5.768)">
      <path id="Trazado_37" data-name="Trazado 37" d="M319.152,77.412h4.172v3.781h-4.172Z" transform="translate(-313.653 -77.412)" fill="#ffe65a"/>
      <path id="Trazado_38" data-name="Trazado 38" d="M245.348,141.312h4.172v3.781h-4.172Z" transform="translate(-245.348 -136.551)" fill="#ffe65a"/>
      <path id="Trazado_39" data-name="Trazado 39" d="M319.152,141.312h4.172v3.781h-4.172Z" transform="translate(-313.653 -136.551)" fill="#ffe65a"/>
      <path id="Trazado_40" data-name="Trazado 40" d="M245.348,205.213h4.172v3.781h-4.172Z" transform="translate(-245.348 -195.691)" fill="#ffe65a"/>
      <path id="Trazado_41" data-name="Trazado 41" d="M319.152,205.213h4.172v3.781h-4.172Z" transform="translate(-313.653 -195.691)" fill="#ffe65a"/>
      <path id="Trazado_42" data-name="Trazado 42" d="M245.348,269.113h4.172v3.781h-4.172Z" transform="translate(-245.348 -254.829)" fill="#ffe65a"/>
      <path id="Trazado_43" data-name="Trazado 43" d="M319.152,269.113h4.172v3.781h-4.172Z" transform="translate(-313.653 -254.829)" fill="#ffe65a"/>
      <path id="Trazado_44" data-name="Trazado 44" d="M245.348,333.013h4.172v3.781h-4.172Z" transform="translate(-245.348 -313.968)" fill="#ffe65a"/>
      <path id="Trazado_45" data-name="Trazado 45" d="M319.152,333.013h4.172v3.781h-4.172Z" transform="translate(-313.653 -313.968)" fill="#ffe65a"/>
      <path id="Trazado_46" data-name="Trazado 46" d="M245.348,396.913h4.172v3.781h-4.172Z" transform="translate(-245.348 -373.107)" fill="#ffe65a"/>
      <path id="Trazado_47" data-name="Trazado 47" d="M319.152,396.913h4.172v3.781h-4.172Z" transform="translate(-313.653 -373.107)" fill="#ffe65a"/>
    </g>
    <path id="Trazado_48" data-name="Trazado 48" d="M244.164,128.154h9.759v.98h-9.759Z" transform="translate(-225.835 -118.605)" fill="#fa870a"/>
    <path id="Trazado_49" data-name="Trazado 49" d="M244.164,192.054h9.759v.98h-9.759Z" transform="translate(-225.835 -177.744)" fill="#fa870a"/>
    <path id="Trazado_50" data-name="Trazado 50" d="M244.164,255.954h9.759v.98h-9.759Z" transform="translate(-225.835 -236.883)" fill="#fa870a"/>
    <path id="Trazado_51" data-name="Trazado 51" d="M244.164,319.854h9.759v.98h-9.759Z" transform="translate(-225.835 -296.022)" fill="#fa870a"/>
    <path id="Trazado_52" data-name="Trazado 52" d="M244.164,383.754h9.759v.98h-9.759Z" transform="translate(-225.835 -355.161)" fill="#fa870a"/>
    <path id="Trazado_53" data-name="Trazado 53" d="M320.591,80.128V77.412h-1.439v3.781h4.172V80.128Z" transform="translate(-295.236 -71.644)" fill="#ffd23c"/>
    <path id="Trazado_54" data-name="Trazado 54" d="M246.787,144.028v-2.716h-1.439v3.781h4.172v-1.065Z" transform="translate(-226.931 -130.783)" fill="#ffd23c"/>
    <path id="Trazado_55" data-name="Trazado 55" d="M320.3,144.028v-2.716h-1.439v3.781h4.172v-1.065Z" transform="translate(-294.971 -130.783)" fill="#ffd23c"/>
    <path id="Trazado_56" data-name="Trazado 56" d="M246.787,207.929v-2.716h-1.439v3.781h4.172v-1.065Z" transform="translate(-226.931 -189.923)" fill="#ffd23c"/>
    <path id="Trazado_57" data-name="Trazado 57" d="M320.019,207.929v-2.716H318.58v3.781h4.172v-1.065Z" transform="translate(-294.707 -189.923)" fill="#ffd23c"/>
    <path id="Trazado_58" data-name="Trazado 58" d="M246.787,271.829v-2.716h-1.439v3.781h4.172v-1.065Z" transform="translate(-226.931 -249.061)" fill="#ffd23c"/>
    <path id="Trazado_59" data-name="Trazado 59" d="M320.3,271.829v-2.716h-1.439v3.781h4.172v-1.065Z" transform="translate(-294.971 -249.061)" fill="#ffd23c"/>
    <path id="Trazado_60" data-name="Trazado 60" d="M246.787,335.729v-2.716h-1.439v3.781h4.172v-1.065Z" transform="translate(-226.931 -308.2)" fill="#ffd23c"/>
    <path id="Trazado_61" data-name="Trazado 61" d="M320.3,335.729v-2.716h-1.439v3.781h4.172v-1.065Z" transform="translate(-294.971 -308.2)" fill="#ffd23c"/>
    <path id="Trazado_62" data-name="Trazado 62" d="M246.787,399.629v-2.716h-1.439v3.781h4.172v-1.065Z" transform="translate(-226.931 -367.339)" fill="#ffd23c"/>
    <path id="Trazado_63" data-name="Trazado 63" d="M320.3,399.629v-2.716h-1.439v3.781h4.172v-1.065Z" transform="translate(-294.971 -367.339)" fill="#ffd23c"/>
    <path id="Trazado_64" data-name="Trazado 64" d="M464.023,42.809h.871v7.918h-.871Z" transform="translate(-429.313 -39.619)" fill="#ec6996"/>
    <path id="Trazado_65" data-name="Trazado 65" d="M464.023,118.626h.871v2.268h-.871Z" transform="translate(-429.313 -109.787)" fill="#ff4181"/>
    <path id="Trazado_66" data-name="Trazado 66" d="M386.773,141.312h7.739v2.17h-7.739Z" transform="translate(-357.819 -130.783)" fill="#ff4181"/>
    <g id="Grupo_219" data-name="Grupo 219" transform="translate(27.523 12.108)">
      <path id="Trazado_67" data-name="Trazado 67" d="M417.958,162.5H412v21.816q.577-.455,1.117-.952l1.742-1.831q.534-.641,1.011-1.329l1.747-3.106a18.877,18.877,0,0,0,1.2-3.664,18.6,18.6,0,0,0,.432-4.041A18.948,18.948,0,0,0,417.958,162.5Z" transform="translate(-408.69 -162.502)" fill="#ff6196"/>
      <path id="Trazado_68" data-name="Trazado 68" d="M371.345,183.935a.371.371,0,0,1-.371-.371V162.5h-3.415v23.914A19.047,19.047,0,0,0,371.345,183.935Z" transform="translate(-367.559 -162.502)" fill="#ff4181"/>
    </g>
    <g id="Grupo_220" data-name="Grupo 220" transform="translate(27.523 12.108)">
      <path id="Trazado_69" data-name="Trazado 69" d="M412,162.5v5.443l7.291,2.05V162.5Z" transform="translate(-408.69 -162.502)" fill="#ff6196"/>
      <path id="Trazado_70" data-name="Trazado 70" d="M367.559,162.5h3.415v6.963h-3.415Z" transform="translate(-367.559 -162.502)" fill="#ff4181"/>
    </g>
    <g id="Grupo_221" data-name="Grupo 221" transform="translate(29.196 14.915)">
      <path id="Trazado_71" data-name="Trazado 71" d="M391.76,219.107V200.178h-1.741v20.168a19.08,19.08,0,0,0,1.741-1.239Z" transform="translate(-390.019 -200.178)" fill="#b80b5a"/>
      <path id="Trazado_72" data-name="Trazado 72" d="M427.021,218.237a19.11,19.11,0,0,0,1.741-1.832V200.178h-1.741Z" transform="translate(-424.264 -200.178)" fill="#b80b5a"/>
      <path id="Trazado_73" data-name="Trazado 73" d="M464.023,215.068a18.932,18.932,0,0,0,1.741-3.1v-11.79h-1.741Z" transform="translate(-458.509 -200.178)" fill="#b80b5a"/>
    </g>
  </g>
</svg>
