<svg id="Grupo_249" data-name="Grupo 249" xmlns="http://www.w3.org/2000/svg" width="38" height="38" viewBox="0 0 38 38">
  <path id="Trazado_107" data-name="Trazado 107" d="M38,19A19,19,0,1,1,19,0,19,19,0,0,1,38,19Z" fill="#ffb52d"/>
  <path id="Trazado_108" data-name="Trazado 108" d="M80.578,55.289A15.289,15.289,0,1,1,65.289,40,15.289,15.289,0,0,1,80.578,55.289Z" transform="translate(-46.289 -37.031)" fill="#ffc14f"/>
  <path id="Trazado_109" data-name="Trazado 109" d="M152.171,326.855A1.855,1.855,0,0,1,154.027,325H164.3a1.855,1.855,0,0,1,0,3.711H154.027A1.855,1.855,0,0,1,152.171,326.855Zm-9.239,10.02H153.2a1.855,1.855,0,1,0,0-3.711H142.932a1.855,1.855,0,1,0,0,3.711Z" transform="translate(-130.606 -300.879)" fill="#ffa90b"/>
  <path id="Trazado_110" data-name="Trazado 110" d="M175.938,350.906a.742.742,0,0,1-.742.742h-4.453a.742.742,0,0,1,0-1.484H175.2A.742.742,0,0,1,175.938,350.906ZM189.3,342h-4.453a.742.742,0,0,0,0,1.484H189.3a.742.742,0,0,0,0-1.484Z" transform="translate(-157.383 -316.617)" fill="#f29500"/>
  <path id="Trazado_111" data-name="Trazado 111" d="M92.969,82h2.673a2.969,2.969,0,0,1,0,5.938H92.969a2.969,2.969,0,0,1,0-5.937Z" transform="translate(-83.32 -75.914)" fill="#51489a"/>
  <path id="Trazado_112" data-name="Trazado 112" d="M118.969,82H125.2a2.969,2.969,0,0,1,0,5.938h-6.234a2.969,2.969,0,0,1,0-5.937Z" transform="translate(-107.391 -75.914)" fill="#5f55af"/>
  <path id="Trazado_113" data-name="Trazado 113" d="M145.7,101.383a.557.557,0,0,1-.557.557h-4.583a.557.557,0,0,1,0-1.113h4.583A.557.557,0,0,1,145.7,101.383Zm-3.239,1.67h-1.9a.557.557,0,0,0,0,1.113h1.9a.557.557,0,0,0,0-1.113Z" transform="translate(-129.609 -93.343)" fill="#8078bf"/>
  <path id="Trazado_114" data-name="Trazado 114" d="M186.628,136.581h-2.457a5.566,5.566,0,0,1-5.566-5.566v-2.123a5.566,5.566,0,0,1,5.566-5.566h2.457a5.566,5.566,0,0,1,5.566,5.566v2.123A5.566,5.566,0,0,1,186.628,136.581Z" transform="translate(-165.349 -114.172)" fill="#c50048"/>
  <path id="Trazado_115" data-name="Trazado 115" d="M233.724,128.892v2.123a5.566,5.566,0,0,1-5.566,5.566h-.809l-1.648,3.33a.371.371,0,0,1-.665,0l-1.648-3.33h-6.406a5.566,5.566,0,0,1-5.566-5.566v-2.123a5.566,5.566,0,0,1,5.566-5.566h11.176A5.566,5.566,0,0,1,233.724,128.892Z" transform="translate(-195.724 -114.173)" fill="#f44545"/>
  <path id="Trazado_116" data-name="Trazado 116" d="M235.2,168.783a.557.557,0,0,1-.557.557h-4.082a.557.557,0,0,1,0-1.113h4.082A.557.557,0,0,1,235.2,168.783Zm1.67-2.783h-6.309a.557.557,0,0,0,0,1.113h6.309a.557.557,0,0,0,0-1.113Z" transform="translate(-212.93 -153.68)" fill="#fd9a9a"/>
  <path id="Trazado_117" data-name="Trazado 117" d="M365.391,147.823a5.2,5.2,0,1,1-5.2-5.2A5.2,5.2,0,0,1,365.391,147.823Z" transform="translate(-328.652 -132.042)" fill="#ffe7c0"/>
  <path id="Trazado_118" data-name="Trazado 118" d="M386.128,147.823a5.172,5.172,0,0,1-.785,2.748,5.2,5.2,0,0,1-7.158-7.158,5.2,5.2,0,0,1,7.943,4.41Z" transform="translate(-349.39 -132.042)" fill="#fff5f5"/>
  <path id="Trazado_119" data-name="Trazado 119" d="M398.942,170.846a.408.408,0,1,1-.408-.408A.408.408,0,0,1,398.942,170.846Zm1.711-4.794a2.122,2.122,0,0,0-4.241.112.371.371,0,1,0,.742,0,1.4,1.4,0,0,1,.013-.193,1.379,1.379,0,1,1,1.366,1.573.371.371,0,0,0-.371.371v1.831a.371.371,0,0,0,.742,0v-1.492a2.124,2.124,0,0,0,1.748-2.2Z" transform="translate(-366.991 -151.867)" fill="#c50048"/>
  <path id="Trazado_120" data-name="Trazado 120" d="M250,31.855A1.855,1.855,0,0,1,251.855,30h3.711a1.855,1.855,0,0,1,0,3.711h-3.711A1.855,1.855,0,0,1,250,31.855Z" transform="translate(-231.445 -27.773)" fill="#ffe7c0"/>
  <path id="Trazado_121" data-name="Trazado 121" d="M277.422,31.855a1.855,1.855,0,0,1-1.855,1.855h-3.711a1.855,1.855,0,0,1,0-3.711h3.711A1.855,1.855,0,0,1,277.422,31.855Z" transform="translate(-249.961 -27.773)" fill="#fff5f5"/>
  <path id="Trazado_122" data-name="Trazado 122" d="M276.155,47.8a.577.577,0,1,1-.577-.577A.577.577,0,0,1,276.155,47.8Zm1.443-.577a.577.577,0,1,0,.577.577A.577.577,0,0,0,277.6,47.222Zm2.02,0a.577.577,0,1,0,.577.577A.577.577,0,0,0,279.618,47.222Z" transform="translate(-254.59 -43.717)" fill="#ffcd71"/>
  <path id="Trazado_123" data-name="Trazado 123" d="M8.535,255.651H5.566A5.566,5.566,0,0,1,0,250.084v-2.123a5.566,5.566,0,0,1,5.566-5.566H8.535a5.566,5.566,0,0,1,5.566,5.566v2.123A5.566,5.566,0,0,1,8.535,255.651Z" transform="translate(0 -224.405)" fill="#51489a"/>
  <path id="Trazado_124" data-name="Trazado 124" d="M52.144,247.962v2.123a5.566,5.566,0,0,1-5.566,5.566h-1.8l-1.352,2.731a.371.371,0,0,1-.665,0l-1.352-2.731H35.162a5.566,5.566,0,0,1-5.566-5.566v-2.123a5.566,5.566,0,0,1,5.566-5.566H46.577A5.566,5.566,0,0,1,52.144,247.962Z" transform="translate(-27.399 -224.406)" fill="#5f55af"/>
  <path id="Trazado_125" data-name="Trazado 125" d="M190,276.557a.557.557,0,0,1,.557-.557h6.309a.557.557,0,0,1,0,1.113h-6.309A.557.557,0,0,1,190,276.557Zm.557,2.783h4.082a.557.557,0,0,0,0-1.113h-4.082a.557.557,0,0,0,0,1.113Zm7.051,1.113h-7.051a.557.557,0,0,0,0,1.113h7.051a.557.557,0,0,0,0-1.113Zm-2.969,2.227h-4.082a.557.557,0,0,0,0,1.113h4.082a.557.557,0,0,0,0-1.113Z" transform="translate(-175.898 -255.516)" fill="#aba6d5"/>
  <path id="Trazado_126" data-name="Trazado 126" d="M35.391,266.893a5.2,5.2,0,1,1-5.2-5.2A5.2,5.2,0,0,1,35.391,266.893Z" transform="translate(-23.145 -242.275)" fill="#3493f8"/>
  <path id="Trazado_127" data-name="Trazado 127" d="M56.128,266.893a5.171,5.171,0,0,1-.785,2.748,5.2,5.2,0,0,1-7.158-7.158,5.2,5.2,0,0,1,7.943,4.41Z" transform="translate(-43.882 -242.275)" fill="#76b6fa"/>
  <path id="Trazado_128" data-name="Trazado 128" d="M89.82,286.4v4.382a.371.371,0,0,1-.742,0V286.4a.371.371,0,0,1,.742,0Zm-.374-1.423a.445.445,0,1,0-.445-.445A.445.445,0,0,0,89.445,284.981Z" transform="translate(-82.395 -263.005)" fill="#fff5f5"/>
</svg>
