<svg id="Layer_1" enable-background="new 0 0 512 512" height="512" viewBox="0 0 512 512" width="512" xmlns="http://www.w3.org/2000/svg"><g><path d="m49.024 398.135 82.662 80.008c36.445 21.504 78.934 33.857 124.314 33.857 38.115 0 74.196-8.705 106.366-24.233l93.113-78.5c28.656-40.108 45.522-89.217 45.522-142.268 0-135.311-109.691-245.002-245.002-245.002s-245.001 109.69-245.001 245.001c0 48.241 13.951 93.219 38.026 131.137z" fill="#816ae2"/><path d="m110.087 365.352v-19.477c-.917-4.361-.641 6.554-.641-142.181 0-7.472-6.057-13.536-13.53-13.536-7.472 0-13.529 6.057-13.529 13.529-.563 36.576 3.594 39.251-14.524 76.105-7.013 14.264-9.426 30.133-8.118 45.974l2.681 25.246c.448 5.467-.06 10.971-1.501 16.263l-6.773 17.767c-1.67 4.38-3.387 8.742-5.128 13.093 20.806 32.769 49.18 60.252 82.662 80.008l4.738-14.923c4.908-14.537 18.187-26.357 32.143-32.251.112-.047.223-.094.336-.141 18.063-7.502 33.629-19.892 45.006-35.715h-74.06c-16.437.001-29.762-13.324-29.762-29.761z" fill="#f9ba8f"/><path d="m363.547 0h-225.772c-16.185 0-29.305 13.12-29.305 29.305v336.844c0 16.185 13.121 29.306 29.306 29.306h225.771c16.185 0 29.306-13.121 29.306-29.306v-336.843c0-16.185-13.121-29.306-29.306-29.306z" fill="#2a428c"/><path d="m137.775 0c-16.185 0-29.305 13.12-29.305 29.305v336.844c0 16.186 13.121 29.306 29.306 29.306h71.427c-7.597-9.898 1.99-16.868 1.99-16.868-14.833-3.461-14-17.206-14-17.206s0-57.333 0-72.667c0-15.333 13.667-18.812 13.667-18.812v-29.759c-13.667-3.237-14.518-12.513-14.518-12.513s0-26.25 0-37.474 15.631-15.829 15.631-15.829v-20.407c-12.304-2.459-9.143-14.361-9.143-14.361l1.108-68.877c-26.256-20.031-7.595-50.55-7.595-50.55-8.667-8.667-3.096-17.32-.831-20.134h-57.737z" fill="#142766"/><path d="m127.385 369.173c0 5.178 4.236 9.414 9.414 9.414h227.637c5.177 0 9.414-4.236 9.414-9.414 0-10.45 0-167.815 0-264.797h-246.465z" fill="#73c3f9"/><path d="m203.394 104.377h-76.009v264.796c0 5.178 4.236 9.414 9.414 9.414h74.393c-14.833-3.461-14-17.206-14-17.206s0-57.333 0-72.667c0-15.333 13.667-18.812 13.667-18.812v-29.759c-13.667-3.237-14.518-12.513-14.518-12.513s0-26.25 0-37.474 15.631-15.829 15.631-15.829v-20.407c-12.304-2.459-9.143-14.361-9.143-14.361z" fill="#4fabf7"/><path d="m364.436 20.134h-227.637c-5.178 0-9.414 4.236-9.414 9.414v76.727h246.464c0-41.507 0-72.375 0-76.728 0-5.177-4.236-9.413-9.413-9.413z" fill="#e9efff"/><path d="m196.341 20.134h-59.542c-5.178 0-9.414 4.236-9.414 9.414v76.727h75.979l.572-35.592c-26.255-20.03-7.595-50.549-7.595-50.549z" fill="#bec8f7"/><g><path d="m315.96 269.903h-130.686c-8.218 0-14.879-6.661-14.879-14.879s6.662-14.879 14.879-14.879h130.686c8.218 0 14.879 6.661 14.879 14.879.001 8.218-6.661 14.879-14.879 14.879z" fill="#e9efff"/></g><path d="m200.144 255.024c0-8.218 6.662-14.88 14.879-14.88h-29.75c-8.218 0-14.879 6.661-14.879 14.88 0 8.218 6.662 14.879 14.879 14.879h29.75c-8.217 0-14.879-6.661-14.879-14.879z" fill="#bec8f7"/><path d="m315.96 240.145h-27.485v29.759h27.485c8.217 0 14.879-6.661 14.879-14.879 0-8.22-6.662-14.88-14.879-14.88z" fill="#9bd8f9"/><g fill="#e9efff"><path d="m414.768 174.329h-48.498c-5.612 0-10.203-4.592-10.203-10.203 0-5.612 4.592-10.203 10.203-10.203h48.498c5.612 0 10.203 4.592 10.203 10.203 0 5.612-4.592 10.203-10.203 10.203z"/><path d="m319.19 174.329h-48.498c-5.612 0-10.203-4.592-10.203-10.203 0-5.612 4.591-10.203 10.203-10.203h48.498c5.612 0 10.203 4.592 10.203 10.203 0 5.612-4.591 10.203-10.203 10.203z"/><path d="m227.077 174.329h-48.498c-5.612 0-10.203-4.592-10.203-10.203 0-5.612 4.592-10.203 10.203-10.203h48.498c5.612 0 10.203 4.592 10.203 10.203.001 5.612-4.591 10.203-10.203 10.203z"/><path d="m131.5 174.329h-48.498c-5.612 0-10.203-4.592-10.203-10.203 0-5.612 4.591-10.203 10.203-10.203h48.498c5.612 0 10.203 4.592 10.203 10.203 0 5.612-4.591 10.203-10.203 10.203z"/></g><path d="m389.458 164.126c0-5.612 4.591-10.203 10.203-10.203h-33.393c-5.612 0-10.203 4.592-10.203 10.203s4.591 10.203 10.203 10.203h33.393c-5.611 0-10.203-4.591-10.203-10.203z" fill="#bec8f7"/><path d="m293.881 164.126c0-5.612 4.592-10.203 10.203-10.203h-33.393c-5.612 0-10.203 4.592-10.203 10.203s4.592 10.203 10.203 10.203h33.393c-5.611 0-10.203-4.591-10.203-10.203z" fill="#bec8f7"/><path d="m201.768 164.126c0-5.612 4.591-10.203 10.203-10.203h-33.393c-5.612 0-10.203 4.592-10.203 10.203s4.592 10.203 10.203 10.203h33.393c-5.611 0-10.203-4.591-10.203-10.203z" fill="#bec8f7"/><path d="m106.191 164.126c0-5.612 4.592-10.203 10.203-10.203h-33.392c-5.612 0-10.203 4.592-10.203 10.203s4.592 10.203 10.203 10.203h33.393c-5.613 0-10.204-4.591-10.204-10.203z" fill="#bec8f7"/><path d="m455.48 409.266-2.066-3.619c-6.48-11.367 2.068-30.922-15.565-61.852-3.906-6.852-31.501-55.256-41.651-73.061-4.86-8.525-15.812-11.523-24.337-6.663l-1.474.84c-8.526 4.86-11.524 15.812-6.664 24.337l-5.946-10.43c-4.723-8.285-14.902-12.121-23.691-8.42-10.476 4.412-14.491 16.922-9.028 26.504l-1.867-3.275c-4.723-8.284-14.902-12.121-23.69-8.42-10.476 4.411-14.492 16.921-9.029 26.504l-29.436-51.633c-4.723-8.285-14.903-12.121-23.691-8.419-10.476 4.412-14.492 16.922-9.029 26.504l49.13 86.179c.968 1.698.339 3.858-1.392 4.763-4.47 2.336-11.299 6.027-13.229 15.292-4.226 20.29 4.299 41.117 21.545 52.62 15.984 10.367-3.433.017 58.865 25.902 4.158 1.668 7.629 4.695 9.848 8.587l9.284 16.258c37.259-17.982 69.267-45.123 93.113-78.498z" fill="#f9ba8f"/><path d="m231.495 254.838 7.569-4.315c4.347-2.478 9.931-.949 12.409 3.397l8.105 14.216c2.479 4.348.949 9.931-3.398 12.41l-7.569 4.315c-4.347 2.478-9.931.949-12.409-3.398l-8.105-14.217c-2.478-4.346-.949-9.93 3.398-12.408z" fill="#f9dfcd"/><path d="m288.673 402.202c4.316-2.461 5.82-7.954 3.36-12.271l-14.587-25.586c.968 1.698.339 3.858-1.392 4.763-3.412 1.783-8.193 4.366-11.126 9.606l11.475 20.128c2.46 4.316 7.954 5.82 12.27 3.36z" fill="#fd995b"/><path d="m62.426 351.011c.448 5.467-.06 10.971-1.501 16.263l-6.773 17.767c-1.67 4.38-3.387 8.742-5.128 13.093 20.806 32.769 49.18 60.252 82.662 80.008l4.738-14.923c4.908-14.537 18.187-26.357 32.143-32.251-82.434.001-106.141-79.957-106.141-79.957z" fill="#fd995b"/><path d="m455.48 409.266-2.066-3.619c-3.903-6.847-2.36-16.67-4.364-30.154-23.452 83.978-119.386 81.829-119.386 81.829 4.033 1.65 8.531 3.504 13.571 5.598 4.158 1.668 7.629 4.695 9.848 8.587l9.284 16.258c37.259-17.983 69.267-45.124 93.113-78.499z" fill="#fd995b"/><g><path d="m393.983 137.412c13.692 0 25.676-9.335 25.676-9.335 5.457-6.096 8.777-14.145 8.777-22.969 0-19.028-15.425-34.452-34.452-34.452-19.028 0-34.453 15.425-34.453 34.452 0 8.825 3.319 16.873 8.776 22.969-.001 0 11.984 9.335 25.676 9.335z" fill="#ff4155"/><path d="m404.712 109.188s-5.039-28.914-8.975-31.786c-3.78-2.758-.882-6.431-.646-6.718-.369-.011-.736-.028-1.108-.028-19.028 0-34.453 15.425-34.453 34.453 0 8.825 3.319 16.873 8.776 22.969 0 0 11.984 9.335 25.677 9.335 13.692 0 25.676-9.335 25.676-9.335 3.293-3.679 5.801-8.073 7.277-12.916-12.011 5.297-22.224-5.974-22.224-5.974z" fill="#e80054"/><g><path d="m384.771 126.76c2.628 2.041 5.871 3.149 9.212 3.149 3.34 0 6.583-1.109 9.212-3.149 1.22-.947 2.491-2.114 3.718-3.486-.708-.228-1.428-.438-2.166-.623-.447-.112-.839-.381-1.093-.738-1.169-1.648-1.492-4.197-1.556-6.045-.82.955-1.68 1.753-2.502 2.392-3.297 2.56-7.933 2.557-11.226 0-.822-.638-1.682-1.437-2.502-2.392-.065 1.889-.401 4.51-1.634 6.154-.21.28-.535.509-.923.606-.767.19-1.519.407-2.258.646 1.227 1.371 2.498 2.538 3.718 3.486z" fill="#fcad6d"/></g><path d="m393.938 120.176c-1.969-.01-3.934-.648-5.568-1.917-.822-.638-1.682-1.437-2.502-2.392-.065 1.889-.402 4.51-1.635 6.154-.211.281-.535.51-.923.606-.767.19-1.518.407-2.258.646 1.227 1.373 2.498 2.54 3.718 3.487 1.48 1.15 3.16 1.991 4.938 2.518 2.832-2.849 3.862-6.575 4.23-9.102z" fill="#fd995b"/><path d="m416.639 127.506c-1.047-.086-1.604-.492-2.838-1.188-2.36-1.331-4.797-2.412-7.424-3.211-1.207 1.371-2.464 2.525-3.667 3.46-2.49 1.934-5.562 2.984-8.726 2.984s-6.237-1.05-8.727-2.984c-1.204-.935-2.46-2.089-3.667-3.46-2.619.798-5.072 1.884-7.424 3.211-1.234.696-1.791 1.102-2.838 1.188-1.102.09-2.105.286-3.021.571 6.309 7.048 15.474 11.484 25.677 11.484s19.368-4.436 25.677-11.484c-.917-.284-1.92-.481-3.022-.571z" fill="#3c58a0"/><g><g><path d="m391.269 77.474c-8.15 1.11-8.924 5.731-8.928 7.426-.001.356-.198.685-.518.841-4.239 2.062-1.954 12.001-1.954 12.001.426.028 1.064.394 1.397.555.081-.506.214-1.005.402-1.487.143-.367.322-.738.545-1.089.388-.608.564-1.326.512-2.043-.152-2.074-.272-5.966 2.465-7.198 2.319-1.043 5.163-.439 6.977.164 1.178.392 2.454.392 3.632 0 1.814-.603 4.658-1.207 6.977-.164 2.729 1.228 2.617 5.101 2.466 7.18-.052.723.119 1.448.51 2.061.231.362.414.745.559 1.124.181.471.309.958.388 1.452.419-.203 1.211-.617 1.723-.544.063-2.173.263-4.516.263-4.516 2.416-11.829-8.641-16.959-17.416-15.763z" fill="#2a428c"/><path d="m391.269 77.474c-8.15 1.11-8.924 5.731-8.928 7.426-.001.356-.198.685-.518.84-4.239 2.062-1.954 12.002-1.954 12.002.426.028 1.064.394 1.397.555.081-.506.214-1.005.402-1.487.143-.367.322-.738.545-1.089.388-.608.564-1.326.512-2.043-.152-2.074-.272-5.966 2.465-7.198 2.319-1.043 5.163-.439 6.977.164.496.165 1.01.256 1.526.282-.079-.136-.163-.27-.258-.403-3.496-4.914 1.364-8.495 2.302-9.121-1.504-.149-3.017-.126-4.468.072z" fill="#1c2e7a"/></g><path d="m409.145 98.035c-.635-.582-1.899-.287-2.446.069.12.746.127 1.509.023 2.262l-.645 4.699c0 .379-.012.75-.034 1.115 1.573.475 2.355-.938 2.486-1.907.057-.417.149-.828.278-1.23.419-1.306 1.929-3.551.338-5.008z" fill="#fcad6d"/><path d="m378.821 98.035c.635-.582 1.899-.287 2.446.069-.12.746-.127 1.509-.023 2.262l.645 4.699c0 .379.012.75.034 1.115-1.573.475-2.354-.938-2.486-1.907-.057-.417-.149-.828-.278-1.23-.419-1.306-1.929-3.551-.338-5.008z" fill="#fd995b"/><path d="m406.504 96.652c-.145-.379-.328-.763-.559-1.124-.391-.613-.563-1.338-.51-2.061.151-2.079.07-6.145-2.659-7.373-2.319-1.043-5.163-.439-6.977.164-1.178.392-2.454.392-3.633 0-1.814-.603-4.658-1.207-6.977-.164-2.737 1.231-2.81 5.317-2.658 7.391.053.717-.124 1.435-.511 2.043-.223.351-.402.722-.545 1.089-.464 1.191-.599 2.483-.425 3.748l.645 4.7c0 6.757 3.607 11.349 6.675 13.731 1.601 1.243 3.578 1.919 5.613 1.919s4.012-.675 5.613-1.919c3.068-2.382 6.675-6.975 6.675-13.731l.645-4.699c.172-1.252.041-2.532-.412-3.714z" fill="#f9ba8f"/><g><path d="m397.33 118.796c-3.068-2.382-6.675-6.975-6.675-13.731l-.645-4.7c-.174-1.265-.039-2.557.425-3.748.143-.367.322-.738.545-1.089.388-.608.564-1.326.512-2.043-.138-1.875-.09-5.394 1.943-6.962-.429-.041-.855-.127-1.268-.265-1.814-.603-4.658-1.207-6.977-.164-2.737 1.231-2.81 5.317-2.658 7.391.053.717-.124 1.435-.512 2.043-.223.351-.402.722-.545 1.089-.464 1.191-.599 2.483-.425 3.748l.645 4.7c0 6.757 3.607 11.349 6.674 13.731 1.601 1.243 3.578 1.919 5.613 1.919 1.578 0 3.12-.408 4.48-1.17-.393-.221-.772-.469-1.132-.749z" fill="#fcad6d"/></g></g><path d="m385.257 126.567c-1.204-.935-2.46-2.089-3.667-3.459-2.619.798-5.072 1.884-7.424 3.211-1.234.696-1.791 1.102-2.838 1.188-1.102.09-2.105.287-3.021.571 2.701 3.018 5.93 5.552 9.536 7.469 1.348-1.109 3.233-2.117 5.875-2.843 2.766-.76 4.796-2.121 6.291-3.729-1.713-.497-3.33-1.303-4.752-2.408z" fill="#2a428c"/></g><g><path d="m202.828 137.412c13.692 0 25.676-9.335 25.676-9.335 5.457-6.096 8.777-14.145 8.777-22.969 0-19.028-15.425-34.452-34.453-34.452s-34.452 15.425-34.452 34.452c0 8.825 3.32 16.873 8.776 22.969 0 0 11.984 9.335 25.676 9.335z" fill="#9181f2"/><path d="m213.557 109.188s-5.039-28.914-8.975-31.786c-3.78-2.758-.882-6.431-.646-6.718-.369-.011-.736-.028-1.108-.028-19.028 0-34.452 15.425-34.452 34.453 0 8.825 3.319 16.873 8.776 22.969 0 0 11.984 9.335 25.677 9.335 13.692 0 25.676-9.335 25.676-9.335 3.293-3.679 5.801-8.073 7.277-12.916-12.011 5.297-22.225-5.974-22.225-5.974z" fill="#816ae2"/><g><path d="m193.617 126.76c2.628 2.041 5.871 3.149 9.212 3.149 3.34 0 6.583-1.109 9.212-3.149 1.22-.947 2.491-2.114 3.718-3.486-.708-.228-1.428-.438-2.166-.623-.447-.112-.839-.381-1.093-.738-1.169-1.648-1.492-4.197-1.556-6.045-.82.955-1.68 1.753-2.502 2.392-3.297 2.56-7.933 2.557-11.226 0-.822-.638-1.682-1.437-2.502-2.392-.065 1.889-.402 4.51-1.635 6.154-.21.28-.535.509-.923.606-.768.19-1.519.407-2.258.646 1.228 1.371 2.499 2.538 3.719 3.486z" fill="#fcad6d"/></g><path d="m202.784 120.176c-1.968-.01-3.934-.648-5.568-1.917-.822-.638-1.682-1.437-2.502-2.392-.065 1.889-.402 4.51-1.635 6.154-.21.281-.535.51-.923.606-.767.19-1.519.407-2.258.646 1.227 1.373 2.498 2.54 3.718 3.487 1.48 1.15 3.16 1.991 4.938 2.518 2.831-2.849 3.861-6.575 4.23-9.102z" fill="#fd995b"/><path d="m225.484 127.506c-1.047-.086-1.604-.492-2.838-1.188-2.36-1.331-4.797-2.412-7.424-3.211-1.207 1.371-2.464 2.525-3.667 3.46-2.49 1.934-5.562 2.984-8.727 2.984-3.164 0-6.237-1.05-8.726-2.984-1.204-.935-2.46-2.089-3.667-3.46-2.619.798-5.072 1.884-7.424 3.211-1.234.696-1.791 1.102-2.838 1.188-1.102.09-2.105.286-3.021.571 6.309 7.048 15.474 11.484 25.677 11.484s19.368-4.436 25.677-11.484c-.916-.284-1.92-.481-3.022-.571z" fill="#3c58a0"/><g><g><path d="m200.114 77.474c-8.15 1.11-8.924 5.731-8.928 7.426-.001.356-.198.685-.518.841-4.239 2.062-1.954 12.001-1.954 12.001.426.028 1.064.394 1.397.555.081-.506.214-1.005.402-1.487.143-.367.322-.738.545-1.089.388-.608.564-1.326.512-2.043-.152-2.074-.272-5.966 2.465-7.198 2.319-1.043 5.163-.439 6.977.164 1.178.392 2.454.392 3.632 0 1.814-.603 4.658-1.207 6.977-.164 2.729 1.228 2.617 5.101 2.467 7.18-.052.723.119 1.448.51 2.061.231.362.414.745.559 1.124.18.471.309.958.388 1.452.419-.203 1.211-.617 1.723-.544.063-2.173.263-4.516.263-4.516 2.415-11.829-8.642-16.959-17.417-15.763z" fill="#2a428c"/><path d="m200.114 77.474c-8.15 1.11-8.924 5.731-8.928 7.426-.001.356-.198.685-.518.84-4.239 2.062-1.954 12.002-1.954 12.002.426.028 1.064.394 1.397.555.081-.506.214-1.005.402-1.487.143-.367.322-.738.545-1.089.388-.608.564-1.326.512-2.043-.152-2.074-.272-5.966 2.465-7.198 2.319-1.043 5.163-.439 6.977.164.496.165 1.01.256 1.526.282-.079-.136-.163-.27-.258-.403-3.496-4.914 1.364-8.495 2.302-9.121-1.504-.149-3.017-.126-4.468.072z" fill="#1c2e7a"/></g><path d="m217.991 98.035c-.635-.582-1.899-.287-2.446.069.12.746.127 1.509.023 2.262l-.645 4.699c0 .379-.012.75-.034 1.115 1.573.475 2.355-.938 2.486-1.907.057-.417.149-.828.278-1.23.418-1.306 1.928-3.551.338-5.008z" fill="#fcad6d"/><path d="m187.666 98.035c.635-.582 1.899-.287 2.446.069-.12.746-.127 1.509-.023 2.262l.645 4.699c0 .379.012.75.034 1.115-1.573.475-2.354-.938-2.486-1.907-.057-.417-.149-.828-.278-1.23-.419-1.306-1.928-3.551-.338-5.008z" fill="#fd995b"/><path d="m215.349 96.652c-.145-.379-.328-.763-.559-1.124-.391-.613-.563-1.338-.51-2.061.151-2.079.07-6.145-2.659-7.373-2.319-1.043-5.163-.439-6.977.164-1.178.392-2.454.392-3.632 0-1.814-.603-4.658-1.207-6.977-.164-2.737 1.231-2.81 5.317-2.658 7.391.053.717-.124 1.435-.512 2.043-.223.351-.402.722-.545 1.089-.464 1.191-.599 2.483-.425 3.748l.645 4.7c0 6.757 3.607 11.349 6.675 13.731 1.601 1.243 3.577 1.919 5.613 1.919 2.035 0 4.012-.675 5.613-1.919 3.068-2.382 6.675-6.975 6.675-13.731l.645-4.699c.172-1.252.041-2.532-.412-3.714z" fill="#f9ba8f"/><g><path d="m206.176 118.796c-3.068-2.382-6.675-6.975-6.675-13.731l-.645-4.7c-.174-1.265-.039-2.557.425-3.748.143-.367.322-.738.545-1.089.388-.608.564-1.326.512-2.043-.138-1.875-.09-5.394 1.943-6.962-.429-.041-.855-.127-1.268-.265-1.814-.603-4.658-1.207-6.977-.164-2.737 1.231-2.81 5.317-2.658 7.391.053.717-.124 1.435-.512 2.043-.223.351-.402.722-.545 1.089-.464 1.191-.599 2.483-.425 3.748l.645 4.7c0 6.757 3.607 11.349 6.674 13.731 1.601 1.243 3.578 1.919 5.613 1.919 1.578 0 3.12-.408 4.48-1.17-.394-.221-.773-.469-1.132-.749z" fill="#fcad6d"/></g></g><path d="m194.102 126.567c-1.204-.935-2.46-2.089-3.667-3.459-2.619.798-5.072 1.884-7.424 3.211-1.234.696-1.791 1.102-2.838 1.188-1.102.09-2.105.287-3.021.571 2.701 3.018 5.93 5.552 9.536 7.469 1.348-1.109 3.233-2.117 5.874-2.843 2.766-.76 4.796-2.121 6.291-3.729-1.712-.497-3.328-1.303-4.751-2.408z" fill="#2a428c"/></g><g><path d="m298.41 138.142c14.451 0 25.774-10.167 25.774-10.167 5.398-6.082 8.678-14.087 8.678-22.859 0-19.028-15.425-34.452-34.452-34.452s-34.452 15.425-34.452 34.452c0 8.772 3.28 16.777 8.679 22.859 0 .001 11.323 10.167 25.773 10.167z" fill="#ffdd40"/><path d="m315.574 112.819s-20.014-29.941-27.974-29.941c-5.988 0-6.903-4.858-6.989-7.265-9.981 6.034-16.653 16.989-16.653 29.504 0 8.772 3.28 16.777 8.679 22.859.001.001 11.323 10.166 25.774 10.166s25.774-10.166 25.774-10.166c2.969-3.346 5.293-7.275 6.787-11.592-9.483 4.947-15.398-3.565-15.398-3.565z" fill="#ffb332"/><path d="m311.058 100.087c.03 1.649-.133 3.338-.309 4.465-.832 3.668-2.034 6.861-3.571 9.492-.697 1.192-1.566 2.277-2.584 3.222l-.13.121v.822c0 .852.331 1.639.894 2.364 3.154-.191 5.835-.829 7.948-1.557 2.544-.876 3.658-3.892 2.268-6.196-3.273-5.425-2.785-12.733-2.785-12.733z" fill="#2a428c"/><path d="m315.574 112.819c-.307-.509-.581-1.034-.825-1.569-3.809 2.21-5.331-.921-5.331-.921s-.098-.144-.279-.413c-.576 1.496-1.23 2.876-1.96 4.126-.697 1.192-1.566 2.277-2.584 3.222l-.13.121v.822c0 .851.331 1.639.894 2.364 3.154-.191 5.835-.829 7.948-1.557 2.543-.875 3.657-3.891 2.267-6.195z" fill="#1c2e7a"/><path d="m283.515 119.015c2.113.728 4.794 1.366 7.948 1.557.563-.725.894-1.513.894-2.364v-1.009l-.125-.12c-.932-.899-1.734-1.921-2.386-3.035-1.538-2.632-2.739-5.824-3.57-9.488-.182-1.062-.346-2.779-.31-4.468h-1.935s.488 7.308-2.785 12.733c-1.388 2.302-.274 5.318 2.269 6.194z" fill="#1c2e7a"/><g><path d="m305.903 79.026c-1.961-1.012-4.399-1.714-7.39-1.714s-5.429.702-7.39 1.714c-4.292 2.214-6.937 6.612-6.937 11.356v5.853.002c.677-.016 1.426.206 1.908.528.178-.582.421-1.085.75-1.456.296-.334.482-.746.495-1.188.05-1.69.494-5.683 3.469-7.211.829-.426 1.842-.101 2.307.706 1.792 3.107 5.973 7.202 15.27 5.457.659-.124 1.279.367 1.299 1.037v.01c.013.441.199.854.495 1.188.329.371.572.874.75 1.456.482-.322 1.231-.543 1.908-.528v-.002-5.853c.003-4.743-2.642-9.14-6.934-11.355z" fill="#2a428c"/></g><path d="m298.334 92.03c-4.608-8.803 4.05-14.288 4.05-14.288-1.173-.271-2.46-.429-3.871-.429-2.991 0-5.429.702-7.39 1.714-4.292 2.214-6.937 6.612-6.937 11.356v5.853.002c.677-.016 1.426.206 1.908.528.178-.582.421-1.085.75-1.456.296-.334.482-.746.495-1.188.05-1.69.494-5.683 3.469-7.211.829-.426 1.842-.101 2.307.706.969 1.68 2.638 3.647 5.434 4.825-.071-.138-.143-.275-.215-.412z" fill="#1c2e7a"/><path d="m285.976 104.612s-.777-4.918.118-7.847c-.812-.541-2.381-.806-3.087-.116-1.445 1.412-.386 3.545.12 4.893.155.414.256.832.301 1.251.099.911.592 2.244 2.64 2.212-.03-.13-.061-.26-.092-.393z" fill="#fd995b"/><path d="m314.018 96.649c-.706-.69-2.275-.426-3.087.116.895 2.929.118 7.847.118 7.847-.03.133-.062.263-.093.394 2.048.031 2.542-1.302 2.64-2.212.045-.419.146-.838.301-1.251.507-1.348 1.566-3.481.121-4.894z" fill="#fcad6d"/><path d="m285.474 124.592c2.291 3.921 5.76 6.97 10.033 8.818 1.914.828 4.108.828 6.021 0 4.272-1.848 7.742-4.898 10.033-8.818.087-.149.17-.304.253-.457-3.596-1.381-6.943-3.348-6.943-5.925 0-.898 0-.629 0-1.21-1.566 1.4-4.25 3.183-6.461 3.236-2.211-.053-4.896-1.837-6.461-3.236 0 1.669.443 3.678-4.803 6.226-.619.3-1.28.583-1.959.847.094.173.189.35.287.519z" fill="#fcad6d"/><path d="m298.355 120.232c-2.201-.081-4.854-1.844-6.407-3.232 0 1.669.443 3.678-4.803 6.226-.619.3-1.28.583-1.959.847.095.175.189.351.288.52 2.015 3.449 4.943 6.223 8.527 8.099 3.029-4.215 4.03-9.251 4.354-12.46z" fill="#fd995b"/><path d="m320.455 126.58c-.489-.132-5.133-1.016-9.226-2.678-.12.216-.237.439-.36.65-2.17 3.714-5.457 6.603-9.505 8.354-1.813.784-3.892.784-5.705 0-4.048-1.751-7.335-4.64-9.505-8.354-.135-.231-.262-.474-.394-.711-4.195 1.729-9.374 2.733-9.396 2.739-.886.17-2.268.556-3.729 1.395 6.311 7.111 15.518 11.593 25.774 11.593s19.463-4.483 25.774-11.593c-1.461-.839-2.842-1.225-3.728-1.395z" fill="#fc90ce"/><path d="m309.788 94.118c-.007-.215-.02-.475-.045-.765-.076-.109-.165-.209-.271-.294-.321-.258-.738-.362-1.142-.286-8.865 1.664-13.022-1.969-14.949-5.309-.352-.61-.962-.978-1.608-1.038-.547.152-1.05.379-1.506.683-2.598 1.73-2.984 5.478-3.03 7.01-.012.402-.174.791-.469 1.123-1.627 1.833-1.271 7.188-.891 9.393.84 3.71 2.058 6.944 3.618 9.614 1.584 2.711 3.982 4.819 6.936 6.097 1.323.572 2.84.572 4.163 0 2.954-1.278 5.353-3.386 6.936-6.097 1.56-2.669 2.777-5.904 3.62-9.621.365-2.318.753-7.533-.892-9.386-.295-.333-.458-.722-.47-1.124z" fill="#f9ba8f"/><path d="m300.367 114.249c-1.56-2.67-2.777-5.905-3.618-9.614-.38-2.205-.736-7.56.891-9.393.295-.333.458-.721.47-1.123.015-.505.068-1.252.224-2.088-2.434-1.116-3.979-2.878-4.953-4.567-.352-.61-.961-.978-1.608-1.038-.547.152-1.05.379-1.506.683-2.598 1.73-2.984 5.478-3.03 7.01-.012.402-.174.791-.469 1.123-1.627 1.833-1.271 7.188-.891 9.393.84 3.71 2.058 6.944 3.618 9.614 1.584 2.711 3.982 4.819 6.936 6.097 1.323.572 2.84.572 4.163 0 1.22-.528 2.343-1.199 3.355-1.993-1.439-1.131-2.652-2.513-3.582-4.104z" fill="#fcad6d"/><path d="m294.302 132.259c-3.426-1.778-6.225-4.418-8.147-7.707-.135-.231-.262-.474-.394-.711-4.195 1.729-9.374 2.733-9.396 2.739-.886.17-2.268.556-3.729 1.395 4.071 4.587 9.349 8.078 15.334 9.98 2.776-1.449 4.824-3.472 6.332-5.696z" fill="#f964b2"/></g><g><path d="m107.251 138.13c14.451 0 25.774-10.166 25.774-10.166 5.398-6.082 8.679-14.087 8.679-22.859 0-19.028-15.425-34.452-34.453-34.452s-34.452 15.425-34.452 34.452c0 8.772 3.28 16.777 8.679 22.859-.001 0 11.322 10.166 25.773 10.166z" fill="#4ce088"/><path d="m124.415 112.807s-20.014-29.941-27.974-29.941c-5.989 0-6.903-4.858-6.989-7.265-9.981 6.034-16.653 16.989-16.653 29.504 0 8.772 3.28 16.777 8.679 22.859 0 0 11.323 10.166 25.774 10.166s25.774-10.166 25.774-10.166c2.969-3.346 5.293-7.275 6.787-11.592-9.483 4.947-15.398-3.565-15.398-3.565z" fill="#30c16b"/><path d="m119.899 100.075c.03 1.649-.133 3.338-.309 4.465-.832 3.668-2.034 6.862-3.571 9.492-.697 1.193-1.566 2.277-2.584 3.222l-.13.121v.822c0 .851.331 1.639.894 2.364 3.154-.191 5.835-.829 7.948-1.557 2.544-.876 3.657-3.892 2.268-6.195-3.273-5.425-2.785-12.733-2.785-12.733h-1.731z" fill="#2a428c"/><path d="m124.415 112.807c-.307-.509-.581-1.034-.825-1.569-3.809 2.21-5.331-.921-5.331-.921s-.098-.144-.279-.413c-.576 1.496-1.229 2.876-1.96 4.126-.697 1.193-1.566 2.277-2.584 3.222l-.13.121v.822c0 .851.331 1.639.894 2.364 3.154-.191 5.835-.829 7.948-1.557 2.543-.875 3.657-3.891 2.267-6.195z" fill="#1c2e7a"/><path d="m92.356 119.003c2.113.728 4.794 1.367 7.948 1.557.563-.725.894-1.513.894-2.364v-1.009l-.125-.12c-.932-.899-1.734-1.921-2.386-3.035-1.538-2.632-2.739-5.824-3.57-9.488-.182-1.062-.347-2.779-.31-4.468h-1.935s.488 7.308-2.785 12.733c-1.388 2.302-.275 5.318 2.269 6.194z" fill="#1c2e7a"/><g><path d="m114.743 79.015c-1.961-1.012-4.399-1.714-7.39-1.714s-5.429.702-7.39 1.714c-4.292 2.214-6.937 6.612-6.937 11.356v5.853.002c.677-.016 1.426.206 1.908.528.178-.582.421-1.085.75-1.456.296-.334.482-.747.495-1.188.05-1.69.494-5.683 3.469-7.211.829-.426 1.842-.101 2.307.706 1.792 3.107 5.973 7.202 15.27 5.457.659-.124 1.279.367 1.3 1.037v.01c.013.441.199.854.495 1.188.329.371.572.874.75 1.456.482-.322 1.231-.544 1.908-.528v-.002-5.853c.003-4.744-2.642-9.141-6.935-11.355z" fill="#2a428c"/></g><path d="m107.175 92.018c-4.608-8.803 4.05-14.288 4.05-14.288-1.173-.271-2.459-.429-3.871-.429-2.991 0-5.429.702-7.39 1.714-4.292 2.214-6.937 6.612-6.937 11.356v5.853.002c.677-.016 1.426.206 1.908.528.178-.582.421-1.085.75-1.456.296-.334.482-.747.495-1.188.05-1.69.494-5.683 3.469-7.211.829-.426 1.842-.101 2.307.706.969 1.68 2.638 3.647 5.434 4.825-.071-.138-.143-.275-.215-.412z" fill="#1c2e7a"/><path d="m94.817 104.6s-.777-4.918.118-7.847c-.812-.541-2.381-.806-3.087-.116-1.445 1.412-.386 3.545.12 4.893.156.414.256.832.301 1.251.099.911.592 2.244 2.64 2.212-.03-.13-.061-.26-.092-.393z" fill="#fd995b"/><path d="m122.859 96.637c-.706-.69-2.275-.426-3.087.116.895 2.929.118 7.847.118 7.847-.03.133-.062.263-.093.394 2.048.031 2.542-1.302 2.64-2.212.045-.419.146-.838.301-1.251.507-1.348 1.566-3.481.121-4.894z" fill="#fcad6d"/><path d="m94.315 124.58c2.291 3.921 5.76 6.97 10.033 8.818 1.914.828 4.108.828 6.021 0 4.272-1.849 7.742-4.898 10.033-8.818.087-.149.17-.304.253-.458-3.596-1.381-6.943-3.348-6.943-5.925 0-.898 0-.629 0-1.21-1.565 1.4-4.25 3.183-6.461 3.236-2.211-.054-4.896-1.837-6.461-3.236 0 1.669.443 3.678-4.803 6.226-.619.3-1.28.583-1.959.847.094.174.189.351.287.52z" fill="#fcad6d"/><path d="m107.196 120.22c-2.201-.081-4.854-1.844-6.407-3.232 0 1.669.443 3.678-4.803 6.226-.619.3-1.28.583-1.959.847.095.175.189.351.288.52 2.015 3.449 4.943 6.223 8.527 8.099 3.028-4.215 4.03-9.251 4.354-12.46z" fill="#fd995b"/><path d="m129.296 126.568c-.489-.132-5.133-1.016-9.226-2.678-.12.216-.236.439-.36.65-2.17 3.714-5.457 6.603-9.505 8.354-1.813.784-3.891.784-5.704 0-4.048-1.751-7.335-4.64-9.505-8.354-.135-.231-.262-.474-.394-.711-4.196 1.729-9.374 2.733-9.396 2.739-.886.17-2.268.556-3.729 1.395 6.311 7.111 15.518 11.593 25.774 11.593s19.463-4.483 25.774-11.593c-1.462-.839-2.843-1.225-3.729-1.395z" fill="#fc90ce"/><path d="m118.629 94.106c-.007-.215-.02-.475-.045-.765-.076-.109-.166-.209-.271-.294-.321-.258-.738-.362-1.142-.287-8.865 1.664-13.022-1.969-14.949-5.309-.352-.61-.962-.978-1.608-1.038-.547.152-1.05.379-1.506.683-2.598 1.73-2.984 5.478-3.03 7.01-.012.402-.174.791-.469 1.123-1.627 1.833-1.271 7.188-.891 9.393.84 3.71 2.058 6.944 3.618 9.614 1.584 2.711 3.982 4.819 6.936 6.097 1.323.572 2.84.572 4.163 0 2.954-1.278 5.353-3.386 6.936-6.097 1.56-2.669 2.777-5.904 3.62-9.621.365-2.318.753-7.532-.893-9.386-.294-.332-.457-.721-.469-1.123z" fill="#f9ba8f"/><path d="m109.208 114.237c-1.56-2.67-2.778-5.905-3.618-9.614-.38-2.205-.736-7.56.891-9.393.295-.332.458-.721.469-1.123.015-.505.068-1.252.224-2.088-2.434-1.116-3.979-2.878-4.953-4.567-.352-.61-.962-.978-1.608-1.038-.547.152-1.05.379-1.506.683-2.598 1.73-2.984 5.478-3.03 7.01-.012.402-.174.791-.469 1.123-1.627 1.833-1.271 7.188-.891 9.393.84 3.71 2.058 6.944 3.618 9.614 1.584 2.711 3.982 4.819 6.936 6.097 1.323.572 2.84.572 4.163 0 1.219-.528 2.343-1.199 3.355-1.993-1.438-1.131-2.651-2.513-3.581-4.104z" fill="#fcad6d"/><path d="m103.143 132.247c-3.426-1.778-6.225-4.418-8.147-7.707-.135-.231-.262-.474-.394-.711-4.196 1.729-9.374 2.733-9.396 2.739-.886.17-2.268.556-3.729 1.395 4.071 4.587 9.349 8.078 15.334 9.98 2.776-1.449 4.824-3.472 6.332-5.696z" fill="#f964b2"/></g></g></svg>